<?xml version="1.0" standalone="no"?>
<!DOCTYPE svg PUBLIC "-//W3C//DTD SVG 20010904//EN"
 "http://www.w3.org/TR/2001/REC-SVG-20010904/DTD/svg10.dtd">
<svg version="1.0" xmlns="http://www.w3.org/2000/svg"
 width="475.000000pt" height="475.000000pt" viewBox="0 0 475.000000 475.000000"
 preserveAspectRatio="xMidYMid meet">
<metadata>
Created by potrace 1.11, written by Peter Selinger 2001-2013
</metadata>
<g transform="translate(0.000000,475.000000) scale(0.100000,-0.100000)"
fill="#000000" stroke="none">
<path d="M2329 4640 c-117 -20 -269 -134 -219 -165 6 -4 33 14 60 38 97 88
205 115 279 71 37 -22 44 -41 44 -114 0 -114 -89 -269 -340 -594 -54 -69 -222
-251 -233 -251 -22 0 -84 73 -114 134 -53 104 -84 202 -132 408 -58 247 -66
274 -86 287 -51 32 -84 -80 -122 -411 -19 -158 -59 -334 -87 -380 -11 -18 -37
-52 -56 -76 -59 -69 -105 -180 -111 -264 -2 -40 -7 -73 -9 -73 -2 0 -28 20
-56 45 -29 24 -82 68 -118 97 -277 220 -314 257 -367 356 -55 102 -52 232 6
316 60 87 205 152 320 143 37 -3 77 -8 88 -12 16 -5 23 -2 27 15 7 27 -24 40
-115 47 -86 7 -185 -23 -272 -81 -109 -74 -151 -183 -128 -333 23 -148 67
-206 338 -443 154 -135 252 -246 365 -411 50 -74 107 -151 127 -172 34 -36 40
-38 87 -35 l50 3 8 -55 c4 -30 6 -100 5 -154 l-3 -100 -65 -13 c-160 -33 -220
-48 -295 -75 -188 -69 -394 -198 -531 -335 -125 -125 -262 -367 -285 -503 -33
-203 -25 -339 30 -511 70 -217 252 -414 498 -538 119 -60 426 -133 638 -152
112 -10 349 2 445 22 170 36 366 115 506 204 111 71 236 229 279 354 50 142
69 322 46 439 -5 23 -6 42 -2 42 10 0 352 -196 396 -226 10 -8 85 -78 165
-156 134 -133 210 -191 226 -176 3 4 -6 46 -19 95 -14 48 -24 89 -23 91 2 1
61 -24 131 -58 147 -69 243 -106 252 -96 4 4 2 32 -5 63 -14 65 -12 68 55 78
100 15 200 64 310 151 57 47 153 176 170 232 20 65 21 224 1 288 -49 157 -153
290 -293 373 -104 61 -157 81 -345 131 -85 23 -192 52 -238 66 -133 40 -221
107 -294 224 -57 91 -59 88 41 89 158 2 456 88 619 178 162 89 340 236 413
340 49 70 37 83 -76 83 -62 0 -226 -21 -305 -39 -24 -5 -46 -8 -48 -6 -2 2 21
39 51 82 110 158 185 334 202 475 9 69 -2 78 -68 58 -106 -31 -254 -118 -339
-199 -21 -19 -40 -33 -42 -30 -3 3 -1 34 4 69 25 172 -5 390 -53 390 -23 0
-155 -138 -231 -239 -40 -54 -94 -137 -120 -185 -26 -47 -49 -86 -50 -86 -2 0
-9 39 -16 88 -15 111 -48 259 -67 295 -20 40 -39 34 -77 -25 -129 -203 -186
-410 -186 -684 0 -199 66 -395 173 -510 46 -49 61 -75 78 -130 51 -166 129
-238 474 -439 166 -97 234 -161 302 -282 23 -41 33 -71 33 -102 0 -38 -5 -49
-39 -81 -49 -47 -116 -70 -200 -70 -123 0 -150 13 -347 169 -415 327 -454 361
-660 566 -172 171 -254 271 -379 465 -37 58 -96 148 -130 200 -109 168 -293
517 -310 590 -5 21 12 45 106 155 329 383 488 661 477 831 -3 54 -8 68 -33 94
-44 46 -91 56 -186 40z m126 -19 c46 -10 75 -61 75 -135 0 -115 -61 -248 -210
-461 -122 -174 -164 -227 -395 -490 -77 -87 -166 -193 -198 -234 -59 -76 -128
-206 -126 -238 0 -16 2 -16 10 2 8 17 20 21 68 22 103 2 147 43 158 147 4 34
0 63 -10 89 -20 47 -21 51 -9 55 6 2 60 -95 120 -215 60 -120 139 -271 175
-335 41 -73 67 -131 69 -155 2 -28 9 -41 26 -49 36 -18 90 -117 132 -239 68
-199 99 -268 201 -445 185 -320 209 -366 238 -457 37 -116 51 -226 41 -336
-18 -198 -90 -344 -237 -484 -143 -136 -433 -259 -683 -290 -149 -18 -397 -12
-505 12 -38 9 -104 22 -146 30 -98 19 -271 75 -338 109 -103 51 -231 148 -305
230 -118 131 -178 259 -210 449 -29 169 4 399 80 548 75 151 160 255 302 371
189 156 440 273 667 313 50 8 98 18 108 21 15 5 17 -2 17 -50 0 -50 -3 -56
-32 -77 -70 -49 -128 -102 -128 -117 0 -10 27 -34 60 -56 33 -21 63 -42 66
-47 3 -5 -1 -54 -8 -110 l-12 -102 -46 -19 c-85 -35 -112 -53 -183 -118 -90
-83 -121 -145 -121 -245 -1 -59 3 -76 26 -112 15 -23 32 -44 38 -48 15 -9 12
-21 -7 -41 -73 -72 -190 -231 -228 -309 -51 -103 -81 -215 -59 -215 8 0 14 4
14 9 0 15 108 93 120 86 5 -3 10 -26 10 -49 0 -61 38 -238 54 -255 12 -11 16
-10 26 10 33 63 144 228 150 224 5 -3 11 -43 15 -89 11 -132 25 -136 80 -25
20 38 53 97 73 132 57 92 172 322 172 342 0 2 11 29 25 59 14 30 25 59 25 65
0 5 19 23 43 39 144 99 225 276 243 524 4 62 -1 125 -20 248 -50 334 -108 563
-178 707 -22 45 -28 70 -24 89 l7 26 -43 -34 c-24 -19 -54 -41 -68 -50 -39
-23 -138 -58 -167 -58 -35 0 -114 81 -170 175 -89 151 -268 360 -392 458 -101
79 -122 98 -181 157 -122 122 -152 184 -154 325 -1 94 10 131 58 198 28 39
111 93 179 117 94 33 274 25 251 -11 -4 -6 -12 -5 -21 3 -11 8 -46 13 -102 13
-78 0 -93 -3 -161 -36 -83 -40 -129 -80 -163 -143 -18 -34 -22 -57 -22 -141 0
-97 1 -102 38 -172 47 -88 124 -160 417 -397 47 -38 115 -95 152 -128 36 -32
68 -55 71 -51 2 4 0 44 -4 88 -8 90 4 222 27 287 8 24 27 59 43 78 64 80 94
188 126 455 39 328 72 428 112 344 6 -13 28 -98 48 -189 45 -204 94 -361 140
-450 l34 -69 -48 6 c-39 4 -57 1 -88 -17 -46 -25 -113 -121 -138 -195 -25 -72
-29 -295 -6 -295 4 0 28 26 55 58 26 31 127 138 225 237 209 213 311 326 413
461 266 353 336 529 249 626 -23 26 -37 32 -92 38 -61 7 -61 7 -14 7 28 1 63
-2 80 -6z m-138 -7 c-3 -3 -12 -4 -19 -1 -8 3 -5 6 6 6 11 1 17 -2 13 -5z
m-83 -35 c-27 -17 -64 -45 -81 -62 -18 -17 -33 -26 -33 -21 0 16 61 70 105 92
60 31 65 26 9 -9z m1503 -662 c20 -64 27 -222 14 -317 -34 -255 -244 -671
-450 -890 -28 -30 -49 -59 -47 -65 2 -5 35 23 74 64 53 56 77 74 100 76 71 6
253 151 337 270 123 174 141 318 36 299 -19 -4 -50 -16 -68 -26 -18 -11 -33
-18 -33 -16 1 22 57 160 75 184 33 43 173 147 249 186 50 25 159 68 173 68 8
0 1 -80 -11 -125 -19 -70 -61 -175 -97 -248 -135 -267 -441 -562 -736 -711
-40 -20 -73 -41 -73 -46 0 -16 10 -12 85 26 57 29 84 37 143 41 146 8 300 65
409 152 57 45 107 119 97 145 -8 22 -78 39 -128 31 l-41 -7 47 46 c52 50 93
66 238 91 81 14 270 21 270 10 0 -40 -181 -221 -300 -300 -222 -149 -535 -255
-751 -255 l-92 0 6 -33 c7 -45 67 -144 119 -198 32 -33 43 -52 43 -76 0 -38
-12 -33 -67 24 -59 62 -116 160 -124 211 -5 37 -16 56 -48 87 -130 128 -196
311 -196 545 0 214 29 359 105 525 34 74 95 175 106 175 8 0 35 -64 49 -115
21 -74 42 -259 47 -400 5 -161 -7 -282 -49 -485 -16 -80 -32 -156 -34 -170 -5
-24 -5 -24 10 -6 8 10 23 52 32 93 15 70 18 74 39 69 19 -5 33 5 77 57 119
138 198 319 198 451 0 39 -3 81 -6 94 -17 60 -103 21 -179 -81 -25 -32 -45
-63 -45 -68 0 -5 -4 -9 -9 -9 -5 0 -7 34 -4 78 4 68 10 88 54 172 27 52 83
140 125 195 77 104 203 239 213 229 3 -3 11 -24 18 -47z m-1922 -242 c17 -9
45 -29 60 -45 l28 -30 -99 -98 c-54 -54 -133 -135 -176 -180 -54 -58 -78 -77
-82 -67 -10 28 2 190 18 242 20 64 72 141 116 171 39 26 88 28 135 7z m135
-165 c0 -5 -5 -10 -11 -10 -5 0 -7 5 -4 10 3 6 8 10 11 10 2 0 4 -4 4 -10z
m-678 -178 c-5 -142 -5 -143 -24 -125 -18 16 -20 27 -15 100 3 46 13 102 23
127 10 25 19 44 20 43 1 -1 -1 -66 -4 -145z m624 116 c-8 -13 -18 -41 -22 -62
l-7 -39 -14 28 c-14 26 -13 29 18 61 38 40 45 43 25 12z m1650 -25 c11 -41 -6
-162 -33 -237 -29 -81 -103 -211 -150 -265 l-33 -36 15 37 c8 21 15 48 15 61
0 13 4 27 8 33 11 12 30 109 31 155 0 20 4 47 9 60 5 13 10 47 10 74 l1 50
-20 -25 -21 -25 19 34 c47 90 136 139 149 84z m295 -105 c6 -71 -21 -146 -90
-246 -43 -64 -169 -186 -223 -215 l-33 -19 36 34 c20 18 51 58 69 88 18 30 44
64 57 76 25 22 127 259 118 274 -3 5 7 11 22 13 16 2 31 5 36 6 4 0 7 -5 8
-11z m-1932 -38 c11 -24 11 -24 -3 -6 -9 11 -16 24 -16 30 0 12 5 7 19 -24z
m-179 -50 c0 -30 -13 -37 -37 -22 -10 6 -9 13 3 30 21 30 34 27 34 -8z m360
-24 c0 -12 -5 -7 -19 24 -11 24 -11 24 3 6 9 -11 16 -24 16 -30z m1896 -230
c8 -20 -32 -76 -86 -121 -55 -46 -163 -101 -237 -120 -69 -18 -104 -18 -47 0
39 12 126 67 170 106 11 11 24 19 28 19 12 0 74 72 88 103 10 21 20 27 46 27
19 0 35 -6 38 -14z m-1897 -46 c11 -24 11 -24 -3 -6 -9 11 -16 24 -16 30 0 12
5 7 19 -24z m176 -115 c38 -53 70 -93 72 -91 3 2 0 13 -5 23 -5 10 -7 26 -3
35 4 13 19 -3 60 -65 216 -326 479 -594 909 -925 101 -78 164 -129 327 -262
102 -84 226 -174 367 -268 44 -29 79 -55 77 -56 -10 -9 -190 12 -203 23 -21
17 -20 7 3 -54 28 -75 80 -275 72 -275 -26 0 -334 143 -364 168 -9 8 -20 12
-23 9 -5 -5 26 -140 43 -184 15 -39 -39 0 -144 104 -65 65 -105 107 -88 93 25
-21 27 -22 15 -4 -15 22 -89 112 -220 267 -82 97 -111 135 -185 242 -26 39
-74 102 -106 140 -32 39 -66 79 -75 90 -8 11 -12 14 -8 6 4 -9 3 -12 -4 -7 -6
4 -9 13 -6 20 3 8 -5 22 -18 32 -31 25 -98 113 -98 130 0 7 -15 27 -32 45 -18
18 -27 29 -19 25 8 -6 7 0 -4 18 -10 14 -21 26 -25 26 -4 0 -26 36 -50 79 -23
44 -57 96 -75 115 -18 20 -31 36 -29 36 2 0 -7 11 -20 25 -13 14 -38 51 -55
82 -18 32 -41 72 -52 90 -11 17 -22 41 -24 52 -2 12 -13 34 -24 50 -12 16 -21
34 -21 41 0 6 -5 8 -12 4 -7 -4 -8 -3 -4 4 4 6 2 20 -3 30 -13 25 -3 65 15 58
21 -8 17 8 -17 75 -16 34 -26 58 -21 55 5 -3 40 -49 77 -101z m-488 -15 c39
-77 88 -225 98 -294 l8 -49 -64 7 c-35 4 -68 11 -73 16 -10 10 -42 193 -52
297 -7 67 5 97 35 91 9 -2 31 -32 48 -68z m524 53 c13 -16 12 -17 -3 -4 -17
13 -22 21 -14 21 2 0 10 -8 17 -17z m-105 -105 c0 -10 -1 -18 -3 -18 -1 0 -7
8 -12 18 -7 13 -6 19 2 19 7 0 13 -9 13 -19z m-509 -110 c-3 -7 -5 -2 -5 12 0
14 2 19 5 13 2 -7 2 -19 0 -25z m10 -60 c-3 -7 -5 -2 -5 12 0 14 2 19 5 13 2
-7 2 -19 0 -25z m-100 -15 c-3 -10 -5 -4 -5 12 0 17 2 24 5 18 2 -7 2 -21 0
-30z m24 -141 l19 -25 6 32 c9 41 20 39 34 -6 7 -21 18 -45 25 -53 61 -74 81
-675 29 -902 -18 -80 -57 -184 -78 -207 -24 -26 -216 -411 -216 -432 0 -21
-64 -154 -79 -163 -9 -6 -18 39 -26 138 -5 56 -10 75 -19 65 -2 -2 -41 -62
-86 -132 -55 -86 -86 -124 -90 -115 -17 29 -39 158 -42 235 -2 46 -5 83 -8 83
-3 0 -16 -10 -30 -23 -36 -32 -110 -89 -110 -85 0 24 41 128 72 186 49 89 103
162 198 267 183 202 248 309 289 475 33 133 72 439 79 620 4 91 8 143 10 116
2 -30 11 -59 23 -74z m96 36 c-3 -8 -6 -5 -6 6 -1 11 2 17 5 13 3 -3 4 -12 1
-19z m43 -8 c0 -5 -5 -10 -11 -10 -5 0 -7 5 -4 10 3 6 8 10 11 10 2 0 4 -4 4
-10z m142 -96 c10 -43 23 -125 31 -181 l13 -102 -70 -3 c-39 -2 -75 -1 -79 3
-5 3 -12 51 -18 105 -5 54 -12 120 -15 145 l-6 47 53 35 c30 20 59 34 64 33 6
-1 18 -38 27 -82z m522 -53 c31 -46 55 -85 53 -87 -2 -2 -19 7 -39 21 -26 18
-42 41 -62 90 -41 104 -38 102 48 -24z m1133 -36 c56 -21 301 -91 351 -100 35
-6 42 -11 42 -29 0 -30 -24 -50 -80 -69 -90 -29 -93 -29 -151 9 -30 19 -79 48
-109 64 -91 46 -105 63 -101 123 1 21 1 21 48 2z m-1067 -15 c6 -11 8 -20 6
-20 -3 0 -10 9 -16 20 -6 11 -8 20 -6 20 3 0 10 -9 16 -20z m-930 -25 c0 -26
-14 -31 -40 -15 -13 8 -12 11 5 24 28 21 35 20 35 -9z m918 -34 l42 -29 -31
-7 c-34 -8 -39 -4 -57 38 -15 34 -8 34 46 -2z m1741 -162 c50 -33 92 -71 125
-112 67 -87 72 -100 66 -192 -5 -73 -6 -78 -19 -56 -29 52 -84 118 -125 151
-53 43 -246 281 -246 304 0 14 10 11 61 -15 34 -16 95 -53 138 -80z m-1611 -2
c23 -34 42 -66 42 -70 0 -4 -11 -24 -24 -43 l-24 -35 -56 96 c-31 53 -56 98
-56 100 0 2 8 6 18 8 47 12 57 7 100 -56z m1420 -54 c27 -32 68 -85 91 -117
22 -33 41 -56 41 -52 0 4 -16 31 -35 59 -71 104 -71 104 -31 67 47 -44 91
-112 106 -167 11 -37 11 -45 -9 -76 -40 -66 -51 -66 -46 0 2 32 7 67 11 78 7
19 6 19 -12 3 -11 -9 -30 -47 -44 -83 -14 -37 -34 -72 -44 -77 -17 -9 -18 -8
-12 13 4 13 10 34 13 46 9 36 -56 161 -124 239 l-62 72 37 25 c20 14 44 26 54
26 9 1 38 -25 66 -56z m-2178 22 c0 -16 -44 -84 -51 -79 -5 3 -9 23 -9 45 0
37 2 39 30 39 17 0 30 -2 30 -5z m80 -119 c34 -11 35 -13 33 -61 -7 -140 -58
-294 -125 -375 -33 -40 -105 -97 -113 -89 -2 3 7 43 20 89 33 118 43 186 44
325 2 80 6 122 14 127 14 9 75 1 127 -16z m829 -64 c30 -42 95 -132 144 -200
69 -94 87 -126 78 -135 -7 -7 -47 -13 -89 -15 l-77 -4 -29 74 c-30 75 -34 82
-101 202 l-38 69 23 43 c12 24 26 44 29 44 3 0 30 -35 60 -78z m-1249 54 c0
-2 -11 -52 -25 -111 -31 -129 -74 -218 -156 -319 -58 -72 -63 -76 -83 -63 -11
7 -31 33 -44 58 -46 87 -7 214 97 318 65 64 211 145 211 117z m2764 -140 c13
-21 14 -34 5 -83 -14 -77 -50 -141 -119 -211 -66 -66 -160 -123 -160 -97 0 33
133 266 196 343 24 30 44 58 44 63 0 17 18 9 34 -15z m208 -163 c1 -78 -16
-182 -28 -170 -2 2 -1 68 2 146 8 157 24 172 26 24z m-1511 10 c13 -16 12 -17
-3 -4 -17 13 -22 21 -14 21 2 0 10 -8 17 -17z m1059 -29 c0 -24 -72 -153 -93
-167 -35 -23 -38 -22 -99 17 -69 44 -189 141 -163 132 11 -4 56 -10 100 -13
65 -4 89 -1 130 15 47 19 125 29 125 16z m-920 -159 c13 -14 21 -25 18 -25 -2
0 -15 11 -28 25 -13 14 -21 25 -18 25 2 0 15 -11 28 -25z m61 -72 c13 -16 12
-17 -3 -4 -17 13 -22 21 -14 21 2 0 10 -8 17 -17z m-50 -32 c25 -11 56 -32 69
-47 21 -22 14 -20 -45 16 -96 58 -101 65 -24 31z m164 -101 c10 -11 16 -20 13
-20 -3 0 -13 9 -23 20 -10 11 -16 20 -13 20 3 0 13 -9 23 -20z m677 -48 c51
-79 54 -88 26 -96 -49 -13 -54 -8 -70 57 -9 34 -19 70 -23 80 -5 12 -2 17 11
17 12 0 33 -22 56 -58z m-2466 -230 c-17 -16 -18 -16 -5 5 7 12 15 20 18 17 3
-2 -3 -12 -13 -22z"/>
<path d="M2214 2567 c-8 -23 11 -92 26 -92 20 0 25 40 10 76 -13 31 -27 37
-36 16z"/>
<path d="M3142 3370 c24 -18 45 -72 53 -135 9 -73 6 -267 -5 -338 -14 -83 -31
-106 -56 -72 -37 51 -70 256 -61 385 4 51 3 77 -3 64 -4 -11 -11 -65 -15 -120
-11 -174 37 -355 97 -362 37 -4 45 15 64 149 14 94 15 129 5 224 -16 157 -41
225 -84 225 -18 0 -18 -2 5 -20z"/>
<path d="M3090 3340 c-18 -42 -9 -45 11 -4 9 19 13 34 9 34 -4 0 -13 -14 -20
-30z"/>
<path d="M3270 2719 c0 -5 5 -7 10 -4 6 3 10 8 10 11 0 2 -4 4 -10 4 -5 0 -10
-5 -10 -11z"/>
</g>
</svg>
